<?xml version="1.0" encoding="utf-8"?>
<!-- Generator: Adobe Illustrator 24.0.1, SVG Export Plug-In . SVG Version: 6.00 Build 0)  -->
<svg version="1.1" id="Слой_1" xmlns="http://www.w3.org/2000/svg" xmlns:xlink="http://www.w3.org/1999/xlink" x="0px" y="0px"
	 viewBox="0 0 40 40" style="enable-background:new 0 0 40 40;" xml:space="preserve">
<style type="text/css">
	.st0{fill:#51575D;}
</style>
<path id="payment-4_2_" class="st0" d="M33.410992,10.764159c1.028481,0,1.862228,0.833748,1.862228,1.862226v14.741237
	c0,1.031788-0.83643,1.868217-1.868221,1.868217H6.589007c-1.024224,0-1.862226-0.838001-1.862226-1.862226V12.632379
	c0-1.02752,0.840698-1.868219,1.868218-1.868219H33.410992z M37.169796,11.415102c0-1.580337-1.281303-2.861632-2.861633-2.861632
	H5.691837c-1.580343,0-2.861633,1.281296-2.861633,2.861632v17.169796c0,1.580336,1.28129,2.861633,2.861633,2.861633h28.616325
	c1.58033,0,2.861633-1.281298,2.861633-2.861633V11.415102z M17.776934,16.608107h1.853479l-1.159103,6.799812h-1.852764
	L17.776934,16.608107z M23.36742,19.339106c-0.646873-0.315065-1.043774-0.524679-1.039482-0.843323
	c0-0.282873,0.335234-0.584774,1.060514-0.584774c0.606386-0.009729,1.045069,0.122334,1.387463,0.260695l0.166262,0.078266
	l0.251537-1.474171c-0.367571-0.137646-0.943195-0.285019-1.661322-0.285019c-1.831873-0.000715-3.121613,0.922161-3.132772,2.24395
	c-0.010439,0.976675,0.920874,1.521673,1.623692,1.847183c0.722275,0.333237,0.964083,0.545713,0.961222,0.843323
	c-0.004143,0.455572-0.577049,0.663755-1.109455,0.663755c-0.741163,0-1.135925-0.102016-1.744452-0.356415L19.89168,21.62369
	l-0.259836,1.522961c0.433109,0.190014,1.233801,0.354986,2.064383,0.363285c1.949345,0,3.213757-0.912432,3.227779-2.323645
	C24.931015,20.412933,24.437813,19.824009,23.36742,19.339106z M31.446531,23.41078H29.72654
	c0,0-0.170553-0.781082-0.225067-1.018599c-0.270998,0-2.161535-0.002861-2.37401-0.002861
	c-0.072542,0.183144-0.389748,1.02146-0.389748,1.02146h-1.946489l2.752747-6.23192
	c0.194162-0.442266,0.526684-0.563742,0.969664-0.563742h1.432247L31.446531,23.41078z M29.199713,20.997707
	c-0.074116-0.340248-0.428959-1.963223-0.428959-1.963223l-0.125761-0.586205
	c-0.093582,0.255114-0.257126,0.667189-0.245964,0.649017c0,0-0.585491,1.509083-0.73773,1.90041H29.199713z M15.064107,16.613688
	l-1.815134,4.636847l-0.192724-0.94248l-0.650455-3.124331c-0.111747-0.430962-0.437401-0.559591-0.839746-0.574186H8.577215
	L8.55347,16.750616c0.727278,0.176134,1.377011,0.430389,1.946476,0.74617l1.648014,5.905552l1.961077-0.001287l2.918294-6.787363
	H15.064107z"/>
</svg>
